<svg width="43" height="54" viewBox="0 0 43 54" fill="none" xmlns="http://www.w3.org/2000/svg">
<g clip-path="url(#clip0_817_256)">
<path d="M41.7 52.9L38.4 6.6L28.3 0.5H0.5L4.3 52.9H41.7Z" fill="white"/>
<path d="M41.7 53.4H4.3C4 53.4 3.8 53.2 3.8 53L0 0.5C0 0.4 0 0.2 0.1 0.1C0.2 0.1 0.4 0 0.5 0H28.3C28.4 0 28.5 0 28.6 0.1L38.7 6.2C38.8 6.3 38.9 6.4 38.9 6.6L42.2 52.9C42.2 53 42.2 53.2 42.1 53.3C42 53.3 41.9 53.4 41.7 53.4ZM4.7 52.4H41.2L37.9 6.9L28.2 1H1L4.7 52.4Z" fill="#1FA75A"/>
<path d="M38.3998 6.6L28.2998 0.5L31.9998 8.5L38.3998 6.6Z" fill="#EBEBEB"/>
<path d="M31.9998 9C31.7998 9 31.5998 8.9 31.5998 8.7L27.8998 0.6C27.7998 0.4 27.8998 0.2 27.9998 0C28.0998 0 28.3998 0 28.4998 0.1L38.5998 6.2C38.7998 6.3 38.8998 6.5 38.7998 6.7C38.7998 6.9 38.5998 7 38.4998 7.1L32.0998 9.1C32.0998 9 31.9998 9 31.9998 9ZM29.3998 1.7L32.2998 8L37.2998 6.5L29.3998 1.7Z" fill="#1FA75A"/>
<path d="M16.2002 24.1C16.3002 25.3 15.4002 26.2 14.2002 26.2C13.0002 26.2 12.0002 25.3 11.9002 24.1C11.8002 22.9 12.7002 22 13.9002 22C15.1002 22 16.1002 22.9 16.2002 24.1Z" fill="#1FA75A"/>
<path d="M29.9004 24.1C30.0004 25.3 29.1004 26.2 27.9004 26.2C26.7004 26.2 25.7004 25.3 25.6004 24.1C25.5004 22.9 26.4004 22 27.6004 22C28.8004 22 29.8004 22.9 29.9004 24.1Z" fill="#1FA75A"/>
<path d="M33.8004 37.8002C33.5004 37.8002 33.3004 37.6002 33.3004 37.4002C33.1004 34.0002 27.7004 31.2002 21.4004 31.2002C17.2004 31.2002 13.5004 32.4002 11.6004 34.4002C10.8004 35.3002 10.4004 36.3002 10.5004 37.3002C10.5004 37.6002 10.3004 37.8002 10.1004 37.8002C9.80045 37.8002 9.60045 37.6002 9.60045 37.4002C9.50045 36.1002 10.0004 34.9002 11.0004 33.8002C13.0004 31.6002 17.1004 30.2002 21.5004 30.2002C28.4004 30.2002 34.1004 33.3002 34.4004 37.3002C34.3004 37.6002 34.1004 37.8002 33.8004 37.8002Z" fill="#1FA75A"/>
<path d="M8.40019 19.7998C8.30019 19.7998 8.2002 19.7998 8.1002 19.6998C7.9002 19.4998 7.9002 19.1998 8.1002 18.9998L10.2002 16.6998C10.4002 16.4998 10.7002 16.4998 10.9002 16.6998C11.1002 16.8998 11.1002 17.1998 10.9002 17.3998L8.8002 19.6998C8.6002 19.7998 8.50019 19.7998 8.40019 19.7998Z" fill="#1FA75A"/>
<path d="M32.7996 19.7998C32.6996 19.7998 32.5996 19.7998 32.4996 19.6998L29.9996 17.3998C29.7996 17.1998 29.7996 16.8998 29.9996 16.6998C30.1996 16.4998 30.4996 16.4998 30.6996 16.6998L33.1996 18.9998C33.3996 19.1998 33.3996 19.4998 33.1996 19.6998C32.9996 19.7998 32.8996 19.7998 32.7996 19.7998Z" fill="#1FA75A"/>
</g>
<defs>
<clipPath id="clip0_817_256">
<rect width="42.2" height="53.4" fill="white"/>
</clipPath>
</defs>
</svg>
